<mxfile host="app.diagrams.net" agent="Mozilla/5.0 (Windows NT 10.0; Win64; x64) AppleWebKit/537.36 (KHTML, like Gecko) Chrome/131.0.0.0 Safari/537.36" version="24.8.6">
  <diagram name="Trang-1" id="SlxgpSN0aCg1XFBn1eMA">
    <mxGraphModel dx="1221" dy="759" grid="1" gridSize="10" guides="1" tooltips="1" connect="1" arrows="1" fold="1" page="1" pageScale="1" pageWidth="827" pageHeight="1169" math="0" shadow="0">
      <root>
        <mxCell id="0" />
        <mxCell id="1" parent="0" />
        <mxCell id="YFD0a10Cm7yKAEeoTMLP-87" value="" style="edgeStyle=orthogonalEdgeStyle;rounded=0;orthogonalLoop=1;jettySize=auto;html=1;" edge="1" parent="1" source="MV8QcyovtJdkSrtCROXG-2" target="YFD0a10Cm7yKAEeoTMLP-86">
          <mxGeometry relative="1" as="geometry" />
        </mxCell>
        <mxCell id="MV8QcyovtJdkSrtCROXG-2" value="Bắt đầu" style="ellipse;whiteSpace=wrap;html=1;" parent="1" vertex="1">
          <mxGeometry x="330" y="30" width="120" height="80" as="geometry" />
        </mxCell>
        <mxCell id="YFD0a10Cm7yKAEeoTMLP-89" value="" style="edgeStyle=orthogonalEdgeStyle;rounded=0;orthogonalLoop=1;jettySize=auto;html=1;" edge="1" parent="1" source="YFD0a10Cm7yKAEeoTMLP-86" target="YFD0a10Cm7yKAEeoTMLP-88">
          <mxGeometry relative="1" as="geometry" />
        </mxCell>
        <mxCell id="YFD0a10Cm7yKAEeoTMLP-90" style="edgeStyle=orthogonalEdgeStyle;rounded=0;orthogonalLoop=1;jettySize=auto;html=1;entryX=0.5;entryY=0;entryDx=0;entryDy=0;" edge="1" parent="1" source="YFD0a10Cm7yKAEeoTMLP-86" target="YFD0a10Cm7yKAEeoTMLP-91">
          <mxGeometry relative="1" as="geometry">
            <mxPoint x="180" y="330" as="targetPoint" />
            <Array as="points">
              <mxPoint x="180" y="230" />
            </Array>
          </mxGeometry>
        </mxCell>
        <mxCell id="YFD0a10Cm7yKAEeoTMLP-92" style="edgeStyle=orthogonalEdgeStyle;rounded=0;orthogonalLoop=1;jettySize=auto;html=1;" edge="1" parent="1">
          <mxGeometry relative="1" as="geometry">
            <mxPoint x="520" y="340" as="targetPoint" />
            <mxPoint x="450" y="230" as="sourcePoint" />
            <Array as="points">
              <mxPoint x="520" y="230" />
            </Array>
          </mxGeometry>
        </mxCell>
        <mxCell id="YFD0a10Cm7yKAEeoTMLP-94" style="edgeStyle=orthogonalEdgeStyle;rounded=0;orthogonalLoop=1;jettySize=auto;html=1;exitX=1;exitY=0.25;exitDx=0;exitDy=0;entryX=0.669;entryY=0.006;entryDx=0;entryDy=0;entryPerimeter=0;" edge="1" parent="1" source="YFD0a10Cm7yKAEeoTMLP-86" target="YFD0a10Cm7yKAEeoTMLP-95">
          <mxGeometry relative="1" as="geometry">
            <mxPoint x="710" y="330" as="targetPoint" />
            <Array as="points">
              <mxPoint x="710" y="216" />
            </Array>
          </mxGeometry>
        </mxCell>
        <mxCell id="YFD0a10Cm7yKAEeoTMLP-86" value="Nhập vào 2 số :3 và 6" style="shape=parallelogram;perimeter=parallelogramPerimeter;whiteSpace=wrap;html=1;fixedSize=1;" vertex="1" parent="1">
          <mxGeometry x="315" y="200" width="150" height="60" as="geometry" />
        </mxCell>
        <mxCell id="YFD0a10Cm7yKAEeoTMLP-100" value="" style="edgeStyle=orthogonalEdgeStyle;rounded=0;orthogonalLoop=1;jettySize=auto;html=1;" edge="1" parent="1" source="YFD0a10Cm7yKAEeoTMLP-88" target="YFD0a10Cm7yKAEeoTMLP-99">
          <mxGeometry relative="1" as="geometry" />
        </mxCell>
        <mxCell id="YFD0a10Cm7yKAEeoTMLP-88" value="6-3" style="whiteSpace=wrap;html=1;" vertex="1" parent="1">
          <mxGeometry x="330" y="340" width="120" height="60" as="geometry" />
        </mxCell>
        <mxCell id="YFD0a10Cm7yKAEeoTMLP-98" value="" style="edgeStyle=orthogonalEdgeStyle;rounded=0;orthogonalLoop=1;jettySize=auto;html=1;" edge="1" parent="1" source="YFD0a10Cm7yKAEeoTMLP-91" target="YFD0a10Cm7yKAEeoTMLP-97">
          <mxGeometry relative="1" as="geometry" />
        </mxCell>
        <mxCell id="YFD0a10Cm7yKAEeoTMLP-91" value="3+6" style="rounded=0;whiteSpace=wrap;html=1;" vertex="1" parent="1">
          <mxGeometry x="120" y="340" width="120" height="60" as="geometry" />
        </mxCell>
        <mxCell id="YFD0a10Cm7yKAEeoTMLP-102" value="" style="edgeStyle=orthogonalEdgeStyle;rounded=0;orthogonalLoop=1;jettySize=auto;html=1;" edge="1" parent="1" source="YFD0a10Cm7yKAEeoTMLP-93" target="YFD0a10Cm7yKAEeoTMLP-101">
          <mxGeometry relative="1" as="geometry" />
        </mxCell>
        <mxCell id="YFD0a10Cm7yKAEeoTMLP-93" value="3*6" style="rounded=0;whiteSpace=wrap;html=1;" vertex="1" parent="1">
          <mxGeometry x="465" y="340" width="120" height="60" as="geometry" />
        </mxCell>
        <mxCell id="YFD0a10Cm7yKAEeoTMLP-104" value="" style="edgeStyle=orthogonalEdgeStyle;rounded=0;orthogonalLoop=1;jettySize=auto;html=1;" edge="1" parent="1" source="YFD0a10Cm7yKAEeoTMLP-95" target="YFD0a10Cm7yKAEeoTMLP-103">
          <mxGeometry relative="1" as="geometry" />
        </mxCell>
        <mxCell id="YFD0a10Cm7yKAEeoTMLP-95" value="6/3" style="rounded=0;whiteSpace=wrap;html=1;" vertex="1" parent="1">
          <mxGeometry x="630" y="340" width="120" height="60" as="geometry" />
        </mxCell>
        <mxCell id="YFD0a10Cm7yKAEeoTMLP-107" style="edgeStyle=orthogonalEdgeStyle;rounded=0;orthogonalLoop=1;jettySize=auto;html=1;entryX=0;entryY=1;entryDx=0;entryDy=0;" edge="1" parent="1" source="YFD0a10Cm7yKAEeoTMLP-97" target="YFD0a10Cm7yKAEeoTMLP-105">
          <mxGeometry relative="1" as="geometry">
            <mxPoint x="180" y="720" as="targetPoint" />
            <Array as="points">
              <mxPoint x="180" y="728" />
            </Array>
          </mxGeometry>
        </mxCell>
        <mxCell id="YFD0a10Cm7yKAEeoTMLP-97" value="9" style="shape=parallelogram;perimeter=parallelogramPerimeter;whiteSpace=wrap;html=1;fixedSize=1;rounded=0;" vertex="1" parent="1">
          <mxGeometry x="120" y="480" width="120" height="60" as="geometry" />
        </mxCell>
        <mxCell id="YFD0a10Cm7yKAEeoTMLP-99" value="3" style="shape=parallelogram;perimeter=parallelogramPerimeter;whiteSpace=wrap;html=1;fixedSize=1;" vertex="1" parent="1">
          <mxGeometry x="330" y="480" width="120" height="60" as="geometry" />
        </mxCell>
        <mxCell id="YFD0a10Cm7yKAEeoTMLP-108" style="edgeStyle=orthogonalEdgeStyle;rounded=0;orthogonalLoop=1;jettySize=auto;html=1;entryX=1;entryY=0.5;entryDx=0;entryDy=0;" edge="1" parent="1" target="YFD0a10Cm7yKAEeoTMLP-105">
          <mxGeometry relative="1" as="geometry">
            <mxPoint x="524.5" y="710" as="targetPoint" />
            <mxPoint x="524.5" y="530" as="sourcePoint" />
            <Array as="points">
              <mxPoint x="525" y="700" />
            </Array>
          </mxGeometry>
        </mxCell>
        <mxCell id="YFD0a10Cm7yKAEeoTMLP-101" value="18" style="shape=parallelogram;perimeter=parallelogramPerimeter;whiteSpace=wrap;html=1;fixedSize=1;rounded=0;" vertex="1" parent="1">
          <mxGeometry x="465" y="480" width="120" height="60" as="geometry" />
        </mxCell>
        <mxCell id="YFD0a10Cm7yKAEeoTMLP-109" style="edgeStyle=orthogonalEdgeStyle;rounded=0;orthogonalLoop=1;jettySize=auto;html=1;exitX=0.5;exitY=1;exitDx=0;exitDy=0;entryX=0.558;entryY=1.021;entryDx=0;entryDy=0;entryPerimeter=0;" edge="1" parent="1" source="YFD0a10Cm7yKAEeoTMLP-103" target="YFD0a10Cm7yKAEeoTMLP-105">
          <mxGeometry relative="1" as="geometry">
            <mxPoint x="690" y="740" as="targetPoint" />
            <Array as="points">
              <mxPoint x="690" y="742" />
            </Array>
          </mxGeometry>
        </mxCell>
        <mxCell id="YFD0a10Cm7yKAEeoTMLP-103" value="2" style="shape=parallelogram;perimeter=parallelogramPerimeter;whiteSpace=wrap;html=1;fixedSize=1;rounded=0;" vertex="1" parent="1">
          <mxGeometry x="630" y="480" width="120" height="60" as="geometry" />
        </mxCell>
        <mxCell id="YFD0a10Cm7yKAEeoTMLP-105" value="Kết thúc" style="ellipse;whiteSpace=wrap;html=1;" vertex="1" parent="1">
          <mxGeometry x="340" y="660" width="120" height="80" as="geometry" />
        </mxCell>
        <mxCell id="YFD0a10Cm7yKAEeoTMLP-106" style="edgeStyle=orthogonalEdgeStyle;rounded=0;orthogonalLoop=1;jettySize=auto;html=1;entryX=0.414;entryY=0.038;entryDx=0;entryDy=0;entryPerimeter=0;" edge="1" parent="1" source="YFD0a10Cm7yKAEeoTMLP-99" target="YFD0a10Cm7yKAEeoTMLP-105">
          <mxGeometry relative="1" as="geometry" />
        </mxCell>
      </root>
    </mxGraphModel>
  </diagram>
</mxfile>
